<svg viewBox="0 0 512 512" fill="none" xmlns="http://www.w3.org/2000/svg">
      <defs>
   <linearGradient id="c1a" x1="0" y1="0.2" x2="0.8" y2="1">
      <stop offset="0%" stop-color="#9fd4c4"></stop>
      <stop offset="100%" stop-color="#4a9e87"></stop>
   </linearGradient>
   <linearGradient id="c1b" x1="1" y1="0.2" x2="0.2" y2="1">
      <stop offset="0%" stop-color="#6db8a2" stop-opacity="0.8"></stop>
      <stop offset="100%" stop-color="#4a9e87" stop-opacity="0.4"></stop>
   </linearGradient>
   <radialGradient id="c1glow" cx="0.5" cy="0.5" r="0.5">
      <stop offset="0%" stop-color="#9fd4c4" stop-opacity="0.7"></stop>
      <stop offset="60%" stop-color="#6db8a2" stop-opacity="0.2"></stop>
      <stop offset="100%" stop-color="#4a9e87" stop-opacity="0"></stop>
   </radialGradient>
   <linearGradient id="c1flare" x1="0.2" y1="0" x2="0.8" y2="0.5">
      <stop offset="0%" stop-color="#eceae6" stop-opacity="0.4"></stop>
      <stop offset="100%" stop-color="#9fd4c4" stop-opacity="0"></stop>
   </linearGradient>
   </defs>
   <path d="M157 0 C52 60, 0 181, 26 331 C52 452, 157 512, 256 482 C183 452, 131 361, 131 241 C131 121, 183 45, 157 0Z" fill="url(#c1a)"></path>
   <path d="M355 0 C460 60, 512 181, 486 331 C460 452, 355 512, 256 482 C329 452, 381 361, 381 241 C381 121, 329 45, 355 0Z" fill="url(#c1b)"></path>
   <ellipse cx="256" cy="256" rx="94" ry="136" fill="url(#c1glow)"></ellipse>
   <ellipse cx="256" cy="241" rx="42" ry="60" fill="#9fd4c4" opacity="0.6"></ellipse>
   <ellipse cx="256" cy="223" rx="24" ry="33" fill="#eceae6" opacity="0.3"></ellipse>
</svg>