<svg viewBox="0 0 512 512" fill="none" xmlns="http://www.w3.org/2000/svg">
    <defs>
   <linearGradient id="b1a" x1="0.5" y1="0" x2="0.5" y2="1">
      <stop offset="0%" stop-color="#c4aac0"></stop>
      <stop offset="100%" stop-color="#8e6e8a"></stop>
   </linearGradient>
   <linearGradient id="b1b" x1="0" y1="0.5" x2="1" y2="0.5">
      <stop offset="0%" stop-color="#a888a4" stop-opacity="0.75"></stop>
      <stop offset="100%" stop-color="#8e6e8a" stop-opacity="0.35"></stop>
   </linearGradient>
   <linearGradient id="b1c" x1="0.3" y1="0" x2="0.7" y2="1">
      <stop offset="0%" stop-color="#c4aac0" stop-opacity="0.6"></stop>
      <stop offset="100%" stop-color="#8e6e8a" stop-opacity="0.2"></stop>
   </linearGradient>
   <radialGradient id="b1core" cx="0.5" cy="0.5" r="0.4">
      <stop offset="0%" stop-color="#eceae6" stop-opacity="0.6"></stop>
      <stop offset="100%" stop-color="#c4aac0" stop-opacity="0"></stop>
   </radialGradient>
   <linearGradient id="b1flare" x1="0.3" y1="0" x2="0.6" y2="0.6">
      <stop offset="0%" stop-color="#eceae6" stop-opacity="0.3"></stop>
      <stop offset="100%" stop-color="#c4aac0" stop-opacity="0"></stop>
   </linearGradient>
   </defs>

	<path d="M256 56 C296 56, 340 100, 348 160 C356 220, 316 268, 256 280 C196 268, 156 220, 164 160 C172 100, 216 56, 256 56Z" fill="url(#b1a)"></path>
	<path d="M256 56 C296 56, 340 100, 348 160 C356 220, 316 268, 256 280 C196 268, 156 220, 164 160 C172 100, 216 56, 256 56Z" fill="url(#b1b)" transform="rotate(120 256 256)"></path>
	<path d="M256 56 C296 56, 340 100, 348 160 C356 220, 316 268, 256 280 C196 268, 156 220, 164 160 C172 100, 216 56, 256 56Z" fill="url(#b1c)" transform="rotate(240 256 256)"></path>
	<circle cx="256" cy="256" r="80" fill="url(#b1core)"></circle>
	<circle cx="256" cy="256" r="36" fill="#c4aac0" opacity="0.4"></circle>
	<circle cx="256" cy="256" r="18" fill="#eceae6" opacity="0.25"></circle>
	<path d="M256 210 C256 175, 272 130, 284 86" stroke="#c4aac0" stroke-width="7" stroke-linecap="round" fill="none" opacity="0.45"></path>
	<circle cx="284" cy="86" r="9" fill="#c4aac0" opacity="0.45"></circle>
</svg>
